<svg width="20" height="20" viewBox="0 0 20 20" fill="none" xmlns="http://www.w3.org/2000/svg">
<path d="M13.9624 2.09879L11.9082 1.64258C11.4973 2.46375 10.6756 2.87434 9.85392 2.87434C9.03226 2.87434 8.21052 2.46375 7.79967 1.64258L5.74542 2.09879M13.9624 2.09879L14.3166 2.17744C15.1439 2.36118 15.8881 2.85225 16.1878 3.64449C16.7314 5.08161 17.1775 7.3776 17.2413 10.6747C17.2488 11.0585 17.2525 11.2505 17.1317 11.3735C17.0109 11.4966 16.8165 11.4966 16.4276 11.4966H14.753M13.9624 2.09879C13.9624 3.9957 14.1394 7.28453 14.753 11.4966M5.74542 2.09879L5.39123 2.17744C4.5639 2.36118 3.81979 2.85225 3.52009 3.64449C2.97642 5.08161 2.53033 7.3776 2.46646 10.6747C2.45903 11.0585 2.45531 11.2505 2.57611 11.3735C2.6969 11.4966 2.89137 11.4966 3.28031 11.4966H4.95481M5.74542 2.09879C5.74542 3.9957 5.56845 7.28453 4.95481 11.4966M14.753 11.4966C14.8712 12.3079 15.1042 13.6462 15.2969 14.7234C15.4422 15.5365 15.5149 15.943 15.2394 16.4492C14.9638 16.9555 14.6856 17.0723 14.1291 17.3059C13.2019 17.6952 11.8063 18.066 9.85392 18.066C7.90162 18.066 6.50595 17.6952 5.57872 17.3059C5.02222 17.0723 4.74398 16.9555 4.46844 16.4492C4.19291 15.943 4.2656 15.5365 4.41098 14.7234C4.60361 13.6462 4.83662 12.3079 4.95481 11.4966" stroke="#F97316" stroke-width="1.23176" stroke-linecap="round" stroke-linejoin="round"/>
<path d="M11.5216 2.46338C11.4009 5.31963 11.594 11.2892 14.7808 12.3174M8.18614 2.46338C8.30686 5.31963 8.1133 11.2892 4.92676 12.3174" stroke="#F97316" stroke-width="1.23176" stroke-linecap="round" stroke-linejoin="round"/>
</svg>
