<svg width="16" height="16" viewBox="0 0 16 16" fill="none" xmlns="http://www.w3.org/2000/svg">
<path d="M11.3092 5.98798C11.3076 4.02121 11.2778 3.00248 10.7052 2.30494C10.5947 2.17022 10.4712 2.04671 10.3365 1.93616C9.60057 1.33228 8.5073 1.33228 6.32062 1.33228C4.13396 1.33228 3.04064 1.33228 2.30476 1.93616C2.17004 2.0467 2.04651 2.17022 1.93595 2.30494C1.33203 3.04077 1.33203 4.13402 1.33203 6.32052C1.33203 8.50705 1.33203 9.60025 1.93595 10.3361C2.0465 10.4708 2.17004 10.5943 2.30476 10.7048C3.00234 11.2774 4.02115 11.3071 5.98804 11.3087" stroke="#141B34" stroke-linecap="round" stroke-linejoin="round"/>
<path d="M9.35224 6.68295L11.3294 6.65454M9.34291 15.3341L11.32 15.3057M14.6478 10.0147L14.6291 11.9878M6.00693 10.0237L5.98828 11.9968M7.65824 6.68295C7.10304 6.78239 6.21191 6.88467 6.00693 8.03245M12.9964 15.3057C13.5531 15.2148 14.4457 15.1262 14.6684 13.9817M12.9964 6.68295C13.5516 6.78239 14.4428 6.88467 14.6478 8.03245M7.66671 15.3048C7.11151 15.2057 6.2203 15.1039 6.01469 13.9562" stroke="#141B34" stroke-linecap="round" stroke-linejoin="round"/>
</svg>
