<svg width="144" height="144" viewBox="0 0 144 144" fill="none" xmlns="http://www.w3.org/2000/svg">
<g filter="url(#filter0_ii_3344_2377)">
<rect x="0.308594" y="0.308105" width="143" height="143" rx="71.5" fill="#E5E7EB"/>
<rect x="0.308594" y="0.308105" width="143" height="143" rx="71.5" stroke="#C8C8C8" stroke-opacity="0.3" stroke-width="0.616379"/>
<path d="M58.8076 84.8081L87.1479 82.4463C96.0156 81.7076 98.0062 79.7706 98.989 70.927L101.058 52.3081" stroke="#9CA3AF" stroke-width="4.875" stroke-linecap="round"/>
<path d="M52.3086 52.3081H104.309" stroke="#9CA3AF" stroke-width="4.875" stroke-linecap="round"/>
<path d="M52.3086 104.308C55.8984 104.308 58.8086 101.398 58.8086 97.8081C58.8086 94.2183 55.8984 91.3081 52.3086 91.3081C48.7187 91.3081 45.8086 94.2183 45.8086 97.8081C45.8086 101.398 48.7187 104.308 52.3086 104.308Z" stroke="#9CA3AF" stroke-width="4.875"/>
<path d="M88.0586 104.308C91.6484 104.308 94.5586 101.398 94.5586 97.8081C94.5586 94.2183 91.6484 91.3081 88.0586 91.3081C84.4687 91.3081 81.5586 94.2183 81.5586 97.8081C81.5586 101.398 84.4687 104.308 88.0586 104.308Z" stroke="#9CA3AF" stroke-width="4.875"/>
<path d="M58.8076 97.8081H81.5576" stroke="#9CA3AF" stroke-width="4.875" stroke-linecap="round"/>
<path d="M39.3086 39.3081H42.4481C45.5183 39.3081 48.1945 41.338 48.9392 44.2316L58.6088 81.8067C59.0974 83.7057 58.6792 85.7171 57.4704 87.2833L54.363 91.3081" stroke="#9CA3AF" stroke-width="4.875" stroke-linecap="round"/>
</g>
<defs>
<filter id="filter0_ii_3344_2377" x="0" y="0" width="149.781" height="152.246" filterUnits="userSpaceOnUse" color-interpolation-filters="sRGB">
<feFlood flood-opacity="0" result="BackgroundImageFix"/>
<feBlend mode="normal" in="SourceGraphic" in2="BackgroundImageFix" result="shape"/>
<feColorMatrix in="SourceAlpha" type="matrix" values="0 0 0 0 0 0 0 0 0 0 0 0 0 0 0 0 0 0 127 0" result="hardAlpha"/>
<feOffset dy="2.46552"/>
<feGaussianBlur stdDeviation="1.23276"/>
<feComposite in2="hardAlpha" operator="arithmetic" k2="-1" k3="1"/>
<feColorMatrix type="matrix" values="0 0 0 0 0 0 0 0 0 0 0 0 0 0 0 0 0 0 0.05 0"/>
<feBlend mode="normal" in2="shape" result="effect1_innerShadow_3344_2377"/>
<feColorMatrix in="SourceAlpha" type="matrix" values="0 0 0 0 0 0 0 0 0 0 0 0 0 0 0 0 0 0 127 0" result="hardAlpha"/>
<feOffset dx="6.16379" dy="8.62931"/>
<feGaussianBlur stdDeviation="7.39655"/>
<feComposite in2="hardAlpha" operator="arithmetic" k2="-1" k3="1"/>
<feColorMatrix type="matrix" values="0 0 0 0 0 0 0 0 0 0 0 0 0 0 0 0 0 0 0.05 0"/>
<feBlend mode="normal" in2="effect1_innerShadow_3344_2377" result="effect2_innerShadow_3344_2377"/>
</filter>
</defs>
</svg>
