<svg width="30" height="30" viewBox="0 0 30 30" fill="none" xmlns="http://www.w3.org/2000/svg">
<path d="M15.5 8.5H13.5C12.5572 8.5 12.0858 8.5 11.7929 8.79289C11.5 9.08579 11.5 9.55719 11.5 10.5V12.5C11.5 13.4428 11.5 13.9142 11.7929 14.2071C12.0858 14.5 12.5572 14.5 13.5 14.5H15.5C16.4428 14.5 16.9142 14.5 17.2071 14.2071C17.5 13.9142 17.5 13.4428 17.5 12.5V10.5C17.5 9.55719 17.5 9.08579 17.2071 8.79289C16.9142 8.5 16.4428 8.5 15.5 8.5Z" stroke="#1F6FEB" stroke-width="1.5" stroke-linejoin="round"/>
<path d="M16 14.5H13V24.5H16V14.5Z" stroke="#1F6FEB" stroke-width="1.5" stroke-linecap="round" stroke-linejoin="round"/>
<path d="M10.5 24.5H18.5" stroke="#1F6FEB" stroke-width="1.5" stroke-linecap="round" stroke-linejoin="round"/>
<path d="M17.5 10H21.5C23.1569 10 24.5 11.3432 24.5 13V15.5H21.5V13H17.5V10Z" stroke="#1F6FEB" stroke-width="1.5" stroke-linejoin="round"/>
<path d="M17.5 5.5H12.0995C10.8378 5.5 10.207 5.5 9.70992 5.82302C9.21288 6.14603 8.95667 6.7225 8.44425 7.87545L5.5 14.5" stroke="#1F6FEB" stroke-width="1.5" stroke-linecap="round" stroke-linejoin="round"/>
<path d="M23 18.5L23.5582 17.9991C23.4159 17.8406 23.213 17.75 23 17.75C22.787 17.75 22.5841 17.8406 22.4418 17.9991L23 18.5ZM23.75 21C23.75 21.4142 23.4142 21.75 23 21.75V23.25C24.2426 23.25 25.25 22.2426 25.25 21H23.75ZM23 21.75C22.5858 21.75 22.25 21.4142 22.25 21H20.75C20.75 22.2426 21.7574 23.25 23 23.25V21.75ZM22.25 21C22.25 21.003 22.2507 20.969 22.2771 20.8886C22.3022 20.8119 22.343 20.7162 22.4012 20.6031C22.5182 20.3759 22.6824 20.1227 22.8589 19.8772C23.0335 19.6345 23.2097 19.4137 23.3431 19.2528C23.4094 19.1727 23.4644 19.1084 23.5023 19.0646C23.5212 19.0428 23.5358 19.0262 23.5454 19.0153C23.5502 19.0099 23.5537 19.0059 23.5559 19.0035C23.557 19.0023 23.5577 19.0015 23.5581 19.001C23.5581 19.001 23.5582 19.0009 23 18.5C22.4418 17.9991 22.4418 17.9991 22.4418 17.9991C22.4417 17.9993 22.4412 17.9997 22.441 17.9999C22.4407 18.0003 22.4403 18.0008 22.4397 18.0014C22.4387 18.0026 22.4373 18.0042 22.4355 18.0061C22.432 18.0101 22.4271 18.0156 22.4209 18.0226C22.4085 18.0367 22.3909 18.0568 22.3688 18.0822C22.3246 18.1332 22.2625 18.2059 22.1882 18.2955C22.0403 18.4739 21.8415 18.7228 21.6411 19.0015C21.4426 19.2774 21.2318 19.5975 21.0675 19.9166C20.9157 20.2115 20.75 20.6053 20.75 21H22.25ZM23 18.5C22.4418 19.0009 22.4417 19.0008 22.4417 19.0008C22.4421 19.0013 22.443 19.0023 22.4441 19.0035C22.4463 19.0059 22.4498 19.0099 22.4546 19.0153C22.4642 19.0262 22.4788 19.0428 22.4977 19.0646C22.5356 19.1084 22.5906 19.1727 22.6569 19.2528C22.7903 19.4137 22.9665 19.6345 23.1411 19.8772C23.3176 20.1227 23.4818 20.3759 23.5988 20.6031C23.657 20.7162 23.6978 20.8119 23.7229 20.8886C23.7493 20.969 23.75 21.003 23.75 21H25.25C25.25 20.6053 25.0843 20.2115 24.9325 19.9166C24.7682 19.5975 24.5574 19.2774 24.3589 19.0015C24.1585 18.7228 23.9597 18.4739 23.8118 18.2955C23.7375 18.2059 23.6754 18.1332 23.6312 18.0822C23.6091 18.0568 23.5915 18.0367 23.5791 18.0226C23.5729 18.0156 23.568 18.0101 23.5645 18.0061C23.5627 18.0042 23.5613 18.0026 23.5603 18.0014C23.5597 18.0008 23.5593 18.0003 23.559 17.9999C23.5588 17.9997 23.5591 18.0001 23.559 17.9999C23.559 17.9999 23.5582 17.9991 23 18.5Z" fill="#1F6FEB"/>
<path d="M14.5 5.5V8.5" stroke="#1F6FEB" stroke-width="1.5" stroke-linecap="round" stroke-linejoin="round"/>
</svg>
