<svg width="20" height="20" viewBox="0 0 20 20" fill="none" xmlns="http://www.w3.org/2000/svg">
<path d="M2.87427 8.21143V12.3173C2.87427 14.6399 2.87427 15.8012 3.59581 16.5228C4.31736 17.2443 5.47867 17.2443 7.8013 17.2443H11.086M16.8342 9.85379V8.21143" stroke="#F97316" stroke-width="1.23176" stroke-linecap="round" stroke-linejoin="round"/>
<path d="M13.9602 6.15986C13.9602 7.29367 13.041 8.21126 11.9072 8.21126C10.7734 8.21126 9.85429 7.29213 9.85429 6.15833C9.85429 7.29213 8.93516 8.21126 7.80136 8.21126C6.66756 8.21126 5.74843 7.29213 5.74843 6.15833C5.74843 7.29213 4.78482 8.21126 3.59614 8.21126C2.95631 8.21126 2.38169 7.94496 1.98746 7.52222C1.30968 6.79541 1.74571 5.72644 2.31139 4.91709L2.62962 4.48194C3.35377 3.49177 3.71584 2.99668 4.24151 2.72991C4.76719 2.46315 5.38055 2.46322 6.60727 2.46339L13.1021 2.46426C14.3284 2.46442 14.9416 2.4645 15.4671 2.73126C15.9926 2.99802 16.3545 3.49295 17.0785 4.48281L17.3972 4.91862C17.9629 5.72797 18.3989 6.79695 17.7211 7.52374C17.3269 7.94649 16.7522 8.21278 16.1124 8.21278C14.9237 8.21278 13.9602 7.29367 13.9602 6.15986Z" stroke="#F97316" stroke-width="1.23176" stroke-linecap="round" stroke-linejoin="round"/>
<path d="M15.1926 12.7283V11.4966M15.1926 16.013V17.2448M17.6553 12.932L16.6144 13.5399M16.6144 13.5399C16.3291 13.0543 15.8013 12.7283 15.1974 12.7283C14.595 12.7283 14.0683 13.0527 13.7824 13.5363M16.6144 13.5399C16.7576 13.7836 16.8397 14.0675 16.8397 14.3707C16.8397 14.6703 16.7595 14.9512 16.6193 15.193M12.7339 15.8061L13.7775 15.1966M13.7775 15.1966C13.6361 14.954 13.5551 14.6718 13.5551 14.3707C13.5551 14.066 13.638 13.7808 13.7824 13.5363M13.7775 15.1966C14.0621 15.6849 14.5915 16.013 15.1974 16.013C15.8048 16.013 16.3352 15.6832 16.6193 15.193M17.6609 15.8013L16.6193 15.193M12.7396 12.9272L13.7824 13.5363" stroke="#F97316" stroke-width="1.23176" stroke-linecap="round" stroke-linejoin="round"/>
</svg>
