<svg width="20" height="20" viewBox="0 0 20 20" fill="none" xmlns="http://www.w3.org/2000/svg">
<path d="M11.4964 2.46338H8.21171C5.11487 2.46338 3.56646 2.46338 2.60439 3.42544C1.64233 4.38751 1.64233 5.93592 1.64233 9.03275C1.64233 12.1296 1.64233 13.678 2.60439 14.64C3.56646 15.6021 5.11487 15.6021 8.21171 15.6021H11.4964C14.5932 15.6021 16.1417 15.6021 17.1037 14.64C18.0658 13.678 18.0658 12.1296 18.0658 9.03275C18.0658 5.93592 18.0658 4.38751 17.1037 3.42544C16.1417 2.46338 14.5932 2.46338 11.4964 2.46338Z" stroke="#F97316" stroke-width="1.23176" stroke-linecap="round"/>
<path d="M13.8776 12.7281C13.8776 12.0024 14.4658 11.4142 15.1914 11.4142M11.2498 12.7281C11.2498 10.5511 13.0145 8.78644 15.1914 8.78644M8.62207 12.7281C8.62207 9.09988 11.5633 6.15869 15.1914 6.15869" stroke="#F97316" stroke-width="1.23176" stroke-linecap="round"/>
<path d="M14.781 15.6021L15.6022 17.2444" stroke="#F97316" stroke-width="1.23176" stroke-linecap="round" stroke-linejoin="round"/>
<path d="M4.92713 15.6021L4.10596 17.2444" stroke="#F97316" stroke-width="1.23176" stroke-linecap="round" stroke-linejoin="round"/>
</svg>
