<svg width="20" height="20" viewBox="0 0 20 20" fill="none" xmlns="http://www.w3.org/2000/svg">
<path d="M2.5 9.9915V12.0835C2.5 14.8333 2.5 16.2082 3.35427 17.0626C4.20854 17.9168 5.58347 17.9168 8.33333 17.9168H11.6667C14.4165 17.9168 15.7914 17.9168 16.6457 17.0626C17.5 16.2082 17.5 14.8333 17.5 12.0835V9.9915C17.5 8.59041 17.5 7.88994 17.2034 7.28354C16.9068 6.67714 16.3539 6.24706 15.248 5.38692L13.5813 4.09062C11.8609 2.75254 11.0007 2.0835 10 2.0835C8.99925 2.0835 8.13908 2.75254 6.41868 4.09062L4.75201 5.38692C3.64611 6.24706 3.09316 6.67714 2.79658 7.28354C2.5 7.88994 2.5 8.59041 2.5 9.9915Z" fill="#F97316" stroke="#F97316" stroke-width="1.25" stroke-linecap="round" stroke-linejoin="round"/>
<path d="M12.5001 14.1665C11.8339 14.6852 10.9586 14.9998 10.0001 14.9998C9.04156 14.9998 8.1664 14.6852 7.50012 14.1665" stroke="#7EFFEF" stroke-width="1.25" stroke-linecap="round" stroke-linejoin="round"/>
</svg>
