<svg width="20" height="20" viewBox="0 0 20 20" fill="none" xmlns="http://www.w3.org/2000/svg">
<path d="M4.22349 11.4981C3.62766 10.5193 3.28491 9.37251 3.28491 8.14643C3.28491 4.55472 6.2264 1.64307 9.85491 1.64307C13.4834 1.64307 16.4249 4.55472 16.4249 8.14643C16.4249 9.37251 16.0822 10.5193 15.4863 11.4981" stroke="#F97316" stroke-width="1.23187" stroke-linecap="round"/>
<path d="M6.06371 14.042C5.98826 13.8149 5.95054 13.7013 5.95493 13.6093C5.96423 13.4147 6.08693 13.2438 6.26795 13.1734C6.35354 13.1401 6.47284 13.1401 6.71143 13.1401H12.9996C13.2383 13.1401 13.3575 13.1401 13.4431 13.1734C13.6242 13.2438 13.7469 13.4147 13.7561 13.6093C13.7605 13.7013 13.7228 13.8149 13.6473 14.042C13.5079 14.4619 13.4381 14.6719 13.3306 14.8418C13.1054 15.1979 12.7522 15.4534 12.3444 15.5553C12.1497 15.6039 11.9292 15.6039 11.4883 15.6039H8.2228C7.78183 15.6039 7.56137 15.6039 7.36668 15.5553C6.95884 15.4534 6.60568 15.1979 6.38041 14.8418C6.27286 14.6719 6.20315 14.4619 6.06371 14.042Z" stroke="#F97316" stroke-width="1.23187"/>
<path d="M12.3191 15.603L12.2129 16.134C12.0968 16.7148 12.0387 17.0051 11.9086 17.2345C11.7074 17.5892 11.3814 17.8565 10.9941 17.9842C10.7436 18.0668 10.4476 18.0668 9.85535 18.0668C9.26315 18.0668 8.96709 18.0668 8.71661 17.9842C8.32931 17.8565 8.0033 17.5892 7.80212 17.2345C7.67201 17.0051 7.61394 16.7148 7.49781 16.134L7.3916 15.603" stroke="#F97316" stroke-width="1.23187"/>
<path d="M9.85498 13.1399V9.03369" stroke="#F97316" stroke-width="1.23187" stroke-linecap="round" stroke-linejoin="round"/>
</svg>
