<svg width="20" height="20" viewBox="0 0 20 20" fill="none" xmlns="http://www.w3.org/2000/svg">
<path d="M5.83325 14.1666V10.8333" stroke="#0B0B0B" stroke-width="1.25" stroke-linecap="round"/>
<path d="M10 14.1666V5.83325" stroke="#0B0B0B" stroke-width="1.25" stroke-linecap="round"/>
<path d="M14.1667 14.1667V9.16675" stroke="#0B0B0B" stroke-width="1.25" stroke-linecap="round"/>
<path d="M2.08325 9.99992C2.08325 6.26797 2.08325 4.40199 3.24262 3.24262C4.40199 2.08325 6.26797 2.08325 9.99992 2.08325C13.7318 2.08325 15.5978 2.08325 16.7573 3.24262C17.9166 4.40199 17.9166 6.26797 17.9166 9.99992C17.9166 13.7318 17.9166 15.5978 16.7573 16.7573C15.5978 17.9166 13.7318 17.9166 9.99992 17.9166C6.26797 17.9166 4.40199 17.9166 3.24262 16.7573C2.08325 15.5978 2.08325 13.7318 2.08325 9.99992Z" stroke="#0B0B0B" stroke-width="1.25" stroke-linejoin="round"/>
</svg>
