<svg width="24" height="24" viewBox="0 0 24 24" fill="none" xmlns="http://www.w3.org/2000/svg">
<path d="M21 3.75V7.125C21 7.32391 20.921 7.51468 20.7803 7.65533C20.6397 7.79598 20.4489 7.875 20.25 7.875C20.0511 7.875 19.8603 7.79598 19.7197 7.65533C19.579 7.51468 19.5 7.32391 19.5 7.125V4.5H16.875C16.6761 4.5 16.4853 4.42098 16.3447 4.28033C16.204 4.13968 16.125 3.94891 16.125 3.75C16.125 3.55109 16.204 3.36032 16.3447 3.21967C16.4853 3.07902 16.6761 3 16.875 3H20.25C20.4489 3 20.6397 3.07902 20.7803 3.21967C20.921 3.36032 21 3.55109 21 3.75ZM20.25 16.125C20.0511 16.125 19.8603 16.204 19.7197 16.3447C19.579 16.4853 19.5 16.6761 19.5 16.875V19.5H16.875C16.6761 19.5 16.4853 19.579 16.3447 19.7197C16.204 19.8603 16.125 20.0511 16.125 20.25C16.125 20.4489 16.204 20.6397 16.3447 20.7803C16.4853 20.921 16.6761 21 16.875 21H20.25C20.4489 21 20.6397 20.921 20.7803 20.7803C20.921 20.6397 21 20.4489 21 20.25V16.875C21 16.6761 20.921 16.4853 20.7803 16.3447C20.6397 16.204 20.4489 16.125 20.25 16.125ZM7.125 19.5H4.5V16.875C4.5 16.6761 4.42098 16.4853 4.28033 16.3447C4.13968 16.204 3.94891 16.125 3.75 16.125C3.55109 16.125 3.36032 16.204 3.21967 16.3447C3.07902 16.4853 3 16.6761 3 16.875V20.25C3 20.4489 3.07902 20.6397 3.21967 20.7803C3.36032 20.921 3.55109 21 3.75 21H7.125C7.32391 21 7.51468 20.921 7.65533 20.7803C7.79598 20.6397 7.875 20.4489 7.875 20.25C7.875 20.0511 7.79598 19.8603 7.65533 19.7197C7.51468 19.579 7.32391 19.5 7.125 19.5ZM3.75 7.875C3.94891 7.875 4.13968 7.79598 4.28033 7.65533C4.42098 7.51468 4.5 7.32391 4.5 7.125V4.5H7.125C7.32391 4.5 7.51468 4.42098 7.65533 4.28033C7.79598 4.13968 7.875 3.94891 7.875 3.75C7.875 3.55109 7.79598 3.36032 7.65533 3.21967C7.51468 3.07902 7.32391 3 7.125 3H3.75C3.55109 3 3.36032 3.07902 3.21967 3.21967C3.07902 3.36032 3 3.55109 3 3.75V7.125C3 7.32391 3.07902 7.51468 3.21967 7.65533C3.36032 7.79598 3.55109 7.875 3.75 7.875ZM12 18.75C10.665 18.75 9.35993 18.3541 8.2499 17.6124C7.13987 16.8707 6.2747 15.8165 5.76381 14.5831C5.25292 13.3497 5.11925 11.9925 5.3797 10.6831C5.64015 9.37377 6.28302 8.17103 7.22703 7.22703C8.17103 6.28302 9.37377 5.64015 10.6831 5.3797C11.9925 5.11925 13.3497 5.25292 14.5831 5.76381C15.8165 6.2747 16.8707 7.13987 17.6124 8.2499C18.3541 9.35993 18.75 10.665 18.75 12C18.748 13.7896 18.0362 15.5053 16.7708 16.7708C15.5053 18.0362 13.7896 18.748 12 18.75ZM17.25 12C17.25 10.9616 16.9421 9.94661 16.3652 9.08326C15.7883 8.2199 14.9684 7.54699 14.0091 7.14963C13.0498 6.75227 11.9942 6.64831 10.9758 6.85088C9.95738 7.05345 9.02192 7.55346 8.28769 8.28769C7.55346 9.02192 7.05345 9.95738 6.85088 10.9758C6.64831 11.9942 6.75227 13.0498 7.14963 14.0091C7.54699 14.9684 8.2199 15.7883 9.08326 16.3652C9.94661 16.9421 10.9616 17.25 12 17.25C13.3919 17.2485 14.7264 16.6949 15.7107 15.7107C16.6949 14.7264 17.2485 13.3919 17.25 12ZM10.875 10.875C10.875 10.6525 10.809 10.435 10.6854 10.25C10.5618 10.065 10.3861 9.92078 10.1805 9.83564C9.97495 9.75049 9.74875 9.72821 9.53052 9.77162C9.31229 9.81502 9.11184 9.92217 8.9545 10.0795C8.79717 10.2368 8.69002 10.4373 8.64662 10.6555C8.60321 10.8738 8.62549 11.1 8.71064 11.3055C8.79578 11.5111 8.93998 11.6868 9.12498 11.8104C9.30999 11.934 9.5275 12 9.75 12C10.0484 12 10.3345 11.8815 10.5455 11.6705C10.7565 11.4595 10.875 11.1734 10.875 10.875ZM14.25 9.75C14.0275 9.75 13.81 9.81598 13.625 9.9396C13.44 10.0632 13.2958 10.2389 13.2106 10.4445C13.1255 10.65 13.1032 10.8762 13.1466 11.0945C13.19 11.3127 13.2972 11.5132 13.4545 11.6705C13.6118 11.8278 13.8123 11.935 14.0305 11.9784C14.2488 12.0218 14.475 11.9995 14.6805 11.9144C14.8861 11.8292 15.0618 11.685 15.1854 11.5C15.309 11.315 15.375 11.0975 15.375 10.875C15.375 10.5766 15.2565 10.2905 15.0455 10.0795C14.8345 9.86853 14.5484 9.75 14.25 9.75ZM13.7541 13.6875C13.3969 14.0034 12.6291 14.25 12 14.25C11.3709 14.25 10.6031 14.0034 10.2459 13.6875C10.1724 13.6205 10.0862 13.5689 9.99246 13.5355C9.89873 13.5022 9.7993 13.4879 9.69996 13.4933C9.60062 13.4988 9.50337 13.5239 9.41385 13.5674C9.32434 13.6108 9.24436 13.6716 9.17856 13.7462C9.11277 13.8208 9.06248 13.9078 9.03062 14.002C8.99877 14.0963 8.98598 14.1959 8.99301 14.2952C9.00003 14.3944 9.02673 14.4912 9.07155 14.5801C9.11637 14.6689 9.17841 14.7479 9.25406 14.8125C9.98812 15.4603 11.1619 15.75 12 15.75C12.8381 15.75 14.0119 15.4603 14.7459 14.8125C14.8216 14.7479 14.8836 14.6689 14.9284 14.5801C14.9733 14.4912 15 14.3944 15.007 14.2952C15.014 14.1959 15.0012 14.0963 14.9694 14.002C14.9375 13.9078 14.8872 13.8208 14.8214 13.7462C14.7556 13.6716 14.6757 13.6108 14.5861 13.5674C14.4966 13.5239 14.3994 13.4988 14.3 13.4933C14.2007 13.4879 14.1013 13.5022 14.0075 13.5355C13.9138 13.5689 13.8276 13.6205 13.7541 13.6875Z" fill="black"/>
</svg>
