<svg width="24" height="24" viewBox="0 0 24 24" fill="none" xmlns="http://www.w3.org/2000/svg">
<path d="M14 4C14 5.10457 13.1046 6 12 6C10.8954 6 10 5.10457 10 4C10 2.89543 10.8954 2 12 2C13.1046 2 14 2.89543 14 4Z" stroke="#141B34" stroke-width="1.5" stroke-linecap="round" stroke-linejoin="round"/>
<path d="M16 12.5C16 10.6144 16 9.67157 15.4142 9.08579C14.8284 8.5 13.8856 8.5 12 8.5C10.1144 8.5 9.17157 8.5 8.58579 9.08579C8 9.67157 8 10.6144 8 12.5V14C8 14.9428 8 15.4142 8.29289 15.7071C8.58579 16 9.05719 16 10 16V20C10 20.9428 10 21.4142 10.2929 21.7071C10.5858 22 11.0572 22 12 22C12.9428 22 13.4142 22 13.7071 21.7071C14 21.4142 14 20.9428 14 20V16C14.9428 16 15.4142 16 15.7071 15.7071C16 15.4142 16 14.9428 16 14V12.5Z" stroke="#141B34" stroke-width="1.5" stroke-linejoin="round"/>
<path d="M13.1181 11.5825C12.8027 11.4256 12.4168 11.3333 12 11.3333C11.5832 11.3333 11.1973 11.4256 10.8819 11.5825C10.7272 11.6594 10.6499 11.6979 10.5749 11.8189C10.5 11.9399 10.5 12.057 10.5 12.2913V12.8728C10.5 13.82 11.2571 14.3466 11.6955 14.5722C11.8178 14.6351 11.8789 14.6666 12 14.6666C12.1211 14.6666 12.1822 14.6351 12.3045 14.5722C12.7429 14.3466 13.5 13.82 13.5 12.8728V12.2913C13.5 12.057 13.5 11.9399 13.4251 11.8189C13.3501 11.6979 13.2728 11.6594 13.1181 11.5825Z" stroke="#141B34" stroke-width="0.25" stroke-linecap="round" stroke-linejoin="round"/>
<path d="M11.9999 12.5001V12.6667M11.8333 12.5834C11.8333 12.6276 11.8508 12.67 11.8821 12.7013C11.9133 12.7325 11.9557 12.7501 11.9999 12.7501C12.0441 12.7501 12.0865 12.7325 12.1178 12.7013C12.149 12.67 12.1666 12.6276 12.1666 12.5834C12.1666 12.5392 12.149 12.4968 12.1178 12.4656C12.0865 12.4343 12.0441 12.4167 11.9999 12.4167C11.9557 12.4167 11.9133 12.4343 11.8821 12.4656C11.8508 12.4968 11.8333 12.5392 11.8333 12.5834Z" stroke="#141B34" stroke-width="0.25" stroke-linecap="round" stroke-linejoin="round"/>
<path d="M12.125 13.3333H11.875L12 12.75L12.125 13.3333Z" stroke="#141B34" stroke-width="0.25" stroke-linecap="round" stroke-linejoin="round"/>
</svg>
