<svg width="16" height="16" viewBox="0 0 16 16" fill="none" xmlns="http://www.w3.org/2000/svg">
<path d="M5.33325 4.66666C5.33325 4.66666 6.79712 2.8559 7.60285 2.15926C7.73239 2.04726 7.87785 1.99434 8.02239 2.00048C8.15205 2.00598 8.28092 2.05896 8.39712 2.15941C9.20265 2.85618 10.6666 4.66666 10.6666 4.66666M8.02239 2.66666V10" stroke="#141B34" stroke-linecap="round" stroke-linejoin="round"/>
<path d="M5.33341 7.33325C4.39999 7.33325 3.93328 7.33325 3.57676 7.51492C3.26316 7.67472 3.00819 7.92965 2.8484 8.24325C2.66675 8.59979 2.66675 9.06652 2.66675 9.99992V10.6666C2.66675 12.2379 2.66675 13.0236 3.1549 13.5118C3.64306 13.9999 4.42873 13.9999 6.00008 13.9999H10.0001C11.5714 13.9999 12.3571 13.9999 12.8453 13.5118C13.3334 13.0236 13.3334 12.2379 13.3334 10.6666V9.99992C13.3334 9.06652 13.3334 8.59979 13.1517 8.24325C12.9919 7.92965 12.737 7.67472 12.4234 7.51492C12.0669 7.33325 11.6001 7.33325 10.6667 7.33325" stroke="#141B34" stroke-linecap="round" stroke-linejoin="round"/>
</svg>
