<svg width="16" height="16" viewBox="0 0 16 16" fill="none" xmlns="http://www.w3.org/2000/svg">
<path d="M5.33331 4.66666C5.33331 4.66666 6.79718 2.8559 7.60291 2.15926C7.73245 2.04726 7.87791 1.99434 8.02245 2.00048C8.15211 2.00598 8.28098 2.05896 8.39718 2.15941C9.20271 2.85618 10.6666 4.66666 10.6666 4.66666M8.02245 2.66666V10" stroke="#141B34" stroke-linecap="round" stroke-linejoin="round"/>
<path d="M5.33335 7.33325C4.39993 7.33325 3.93322 7.33325 3.5767 7.51492C3.2631 7.67472 3.00813 7.92965 2.84834 8.24325C2.66669 8.59979 2.66669 9.06652 2.66669 9.99992V10.6666C2.66669 12.2379 2.66669 13.0236 3.15484 13.5118C3.643 13.9999 4.42867 13.9999 6.00002 13.9999H10C11.5714 13.9999 12.357 13.9999 12.8452 13.5118C13.3334 13.0236 13.3334 12.2379 13.3334 10.6666V9.99992C13.3334 9.06652 13.3334 8.59979 13.1517 8.24325C12.9919 7.92965 12.737 7.67472 12.4234 7.51492C12.0668 7.33325 11.6001 7.33325 10.6667 7.33325" stroke="#141B34" stroke-linecap="round" stroke-linejoin="round"/>
</svg>
