<svg width="20" height="20" viewBox="0 0 20 20" fill="none" xmlns="http://www.w3.org/2000/svg">
<path d="M14.5833 7.2915L12.5372 16.2942C12.5125 16.4032 12.5 16.5146 12.5 16.6263C12.5 17.4539 13.1709 18.1248 13.9985 18.1248H15" stroke="#0B0B0B" stroke-opacity="0.7" stroke-width="1.25" stroke-linecap="round" stroke-linejoin="round"/>
<path d="M16.016 18.1252H3.98398C3.1644 18.1252 2.5 17.4607 2.5 16.6412C2.5 16.5198 2.51488 16.399 2.54431 16.2812L4.36878 8.98341C4.67192 7.77078 4.82351 7.16448 5.27561 6.81149C5.72771 6.4585 6.35267 6.4585 7.60259 6.4585H12.3974C13.6473 6.4585 14.2722 6.4585 14.7244 6.81149C15.1765 7.16448 15.3281 7.77078 15.6312 8.98341L17.4557 16.2812C17.4851 16.399 17.5 16.5198 17.5 16.6412C17.5 17.4607 16.8356 18.1252 16.016 18.1252Z" stroke="#0B0B0B" stroke-opacity="0.7" stroke-width="1.25" stroke-linecap="round" stroke-linejoin="round"/>
<path d="M12.5 6.45817V4.7915C12.5 3.4108 11.3807 2.2915 10 2.2915C8.61925 2.2915 7.5 3.4108 7.5 4.7915V6.45817" stroke="#0B0B0B" stroke-opacity="0.7" stroke-width="1.25" stroke-linecap="round" stroke-linejoin="round"/>
<path d="M8.33301 8.9585H10.4163" stroke="#0B0B0B" stroke-opacity="0.7" stroke-width="1.25" stroke-linecap="round" stroke-linejoin="round"/>
</svg>
