<svg width="24" height="24" viewBox="0 0 24 24" fill="none" xmlns="http://www.w3.org/2000/svg">
<path d="M3.5 10V15C3.5 17.8284 3.5 19.2426 4.37867 20.1213C5.25735 21 6.67157 21 9.5 21H14.5C17.3284 21 18.7427 21 19.6213 20.1213C20.5 19.2426 20.5 17.8284 20.5 15V10" stroke="#F97316" stroke-width="1.5" stroke-linecap="round" stroke-linejoin="round"/>
<path d="M17 7.50196C17 8.88267 15.8807 10.0001 14.5 10.0001C13.1193 10.0001 12 8.8808 12 7.50009C12 8.8808 10.8807 10.0001 9.5 10.0001C8.11928 10.0001 7 8.8808 7 7.50009C7 8.8808 5.82653 10.0001 4.37899 10.0001C3.59982 10.0001 2.90006 9.67579 2.41998 9.16099C1.5946 8.27592 2.12559 6.97415 2.81446 5.98854L3.202 5.45863C4.08384 4.25282 4.52476 3.64992 5.16491 3.32506C5.80506 3.0002 6.55199 3.0003 8.04585 3.0005L15.9551 3.00155C17.4485 3.00175 18.1952 3.00185 18.8351 3.3267C19.475 3.65155 19.9158 4.25426 20.7974 5.45969L21.1855 5.99041C21.8744 6.97601 22.4054 8.27778 21.58 9.16285C21.0999 9.67766 20.4002 10.0019 19.621 10.0019C18.1734 10.0019 17 8.88267 17 7.50196Z" stroke="#F97316" stroke-width="1.5" stroke-linecap="round" stroke-linejoin="round"/>
<path d="M14.9971 17C14.3133 17.6072 13.2247 18 11.9985 18C10.7723 18 9.68376 17.6072 9 17" stroke="#F97316" stroke-width="1.5" stroke-linecap="round" stroke-linejoin="round"/>
</svg>
