<svg width="14" height="14" viewBox="0 0 14 14" fill="none" xmlns="http://www.w3.org/2000/svg">
<path d="M4.58868 7.12245C2.86059 5.83044 1.62908 4.40929 0.956649 3.61035C0.748497 3.36303 0.680288 3.18204 0.639282 2.86322C0.498851 1.77155 0.428643 1.22572 0.74874 0.873357C1.06884 0.520996 1.63491 0.520996 2.76706 0.520996H10.7749C11.9071 0.520996 12.4731 0.520996 12.7932 0.873357C13.1134 1.22572 13.0431 1.77155 12.9027 2.86322C12.8617 3.18204 12.7935 3.36304 12.5853 3.61035C11.912 4.41031 10.678 5.83398 8.94641 7.12759C8.78974 7.24467 8.68648 7.43537 8.66731 7.64696C8.49578 9.54321 8.33759 10.5818 8.23912 11.1072C8.08023 11.9555 6.87738 12.4659 6.23349 12.9212C5.85023 13.1922 5.38509 12.8696 5.33542 12.45C5.24074 11.6502 5.06239 10.0254 4.86771 7.64696C4.85022 7.43342 4.74659 7.24051 4.58868 7.12245Z" stroke="#6B7280" stroke-width="1.04167" stroke-linecap="round" stroke-linejoin="round"/>
</svg>
